<svg xmlns="http://www.w3.org/2000/svg" xmlns:xlink="http://www.w3.org/1999/xlink" width="500" zoomAndPan="magnify" viewBox="0 0 375 374.999991"  preserveAspectRatio="xMidYMid meet" version="1.0"><defs><clipPath id="id1"><path d="M 16 0 L 359.316406 0 L 359.316406 375 L 16 375 Z M 16 0 " clip-rule="nonzero"/></clipPath></defs><g clip-path="url(#id1)"><path fill="#d8d355" d="M 125.777344 0.0234375 C 124.757812 0.0234375 123.742188 0.0742188 122.726562 0.171875 C 121.714844 0.273438 120.707031 0.421875 119.707031 0.621094 C 118.707031 0.820312 117.71875 1.066406 116.746094 1.363281 C 115.769531 1.660156 114.8125 2 113.871094 2.390625 C 112.925781 2.78125 112.007812 3.214844 111.109375 3.695312 C 110.210938 4.175781 109.335938 4.699219 108.488281 5.265625 C 107.640625 5.832031 106.824219 6.4375 106.035156 7.085938 C 105.25 7.730469 104.496094 8.414062 103.773438 9.132812 C 103.054688 9.855469 102.371094 10.609375 101.722656 11.394531 C 101.074219 12.183594 100.46875 13 99.902344 13.847656 C 99.335938 14.695312 98.8125 15.566406 98.332031 16.464844 C 97.851562 17.363281 97.417969 18.285156 97.027344 19.226562 C 96.636719 20.167969 96.292969 21.125 96 22.101562 C 95.703125 23.074219 95.457031 24.0625 95.257812 25.0625 C 95.058594 26.058594 94.910156 27.066406 94.808594 28.082031 C 94.707031 29.09375 94.660156 30.109375 94.660156 31.128906 L 94.660156 135.53125 C 102.800781 121.601562 114.195312 109.464844 124.863281 98.105469 C 140.023438 81.890625 154.523438 66.480469 156.898438 49.210938 L 156.898438 31.128906 C 156.898438 30.109375 156.847656 29.09375 156.746094 28.082031 C 156.648438 27.066406 156.5 26.0625 156.300781 25.0625 C 156.101562 24.0625 155.855469 23.074219 155.558594 22.101562 C 155.265625 21.125 154.921875 20.167969 154.53125 19.226562 C 154.140625 18.285156 153.707031 17.367188 153.226562 16.46875 C 152.746094 15.570312 152.222656 14.695312 151.65625 13.847656 C 151.089844 13 150.484375 12.183594 149.835938 11.398438 C 149.191406 10.609375 148.507812 9.855469 147.785156 9.136719 C 147.066406 8.414062 146.3125 7.730469 145.523438 7.085938 C 144.734375 6.4375 143.917969 5.832031 143.070312 5.265625 C 142.222656 4.699219 141.351562 4.175781 140.449219 3.695312 C 139.550781 3.214844 138.632812 2.78125 137.691406 2.390625 C 136.746094 2 135.789062 1.660156 134.8125 1.363281 C 133.839844 1.066406 132.851562 0.820312 131.851562 0.621094 C 130.851562 0.421875 129.84375 0.273438 128.828125 0.171875 C 127.8125 0.0742188 126.796875 0.0234375 125.777344 0.0234375 Z M 226.992188 313.335938 C 225.84375 313.335938 224.699219 313.308594 223.554688 313.25 C 222.40625 313.191406 221.265625 313.105469 220.121094 312.992188 C 218.980469 312.878906 217.84375 312.738281 216.710938 312.570312 C 215.574219 312.402344 214.445312 312.203125 213.320312 311.980469 C 212.195312 311.753906 211.078125 311.503906 209.964844 311.222656 C 208.851562 310.945312 207.75 310.636719 206.652344 310.304688 C 205.554688 309.972656 204.464844 309.613281 203.386719 309.226562 C 202.304688 308.839844 201.238281 308.425781 200.175781 307.984375 C 199.117188 307.546875 198.070312 307.082031 197.03125 306.589844 C 195.996094 306.101562 194.972656 305.585938 193.960938 305.042969 C 192.949219 304.503906 191.953125 303.9375 190.96875 303.347656 C 189.984375 302.757812 189.015625 302.144531 188.0625 301.507812 C 187.109375 300.871094 186.171875 300.210938 185.25 299.527344 C 184.328125 298.847656 183.425781 298.140625 182.539062 297.414062 C 181.652344 296.6875 180.785156 295.9375 179.933594 295.167969 C 179.085938 294.398438 178.253906 293.609375 177.445312 292.796875 C 176.632812 291.988281 175.839844 291.15625 175.070312 290.308594 C 174.300781 289.460938 173.550781 288.589844 172.824219 287.707031 C 172.097656 286.820312 171.390625 285.917969 170.707031 284.996094 C 170.023438 284.074219 169.363281 283.140625 168.726562 282.1875 C 168.085938 281.234375 167.472656 280.265625 166.882812 279.28125 C 166.292969 278.300781 165.726562 277.300781 165.1875 276.292969 C 164.644531 275.28125 164.128906 274.257812 163.636719 273.222656 C 163.144531 272.1875 162.679688 271.136719 162.242188 270.078125 C 161.800781 269.019531 161.386719 267.953125 161 266.871094 C 160.613281 265.792969 160.253906 264.707031 159.917969 263.609375 C 159.585938 262.511719 159.277344 261.40625 158.996094 260.296875 C 158.71875 259.183594 158.464844 258.066406 158.242188 256.941406 C 158.015625 255.816406 157.816406 254.6875 157.648438 253.554688 C 157.480469 252.421875 157.335938 251.285156 157.222656 250.144531 C 157.109375 249.003906 157.023438 247.859375 156.964844 246.714844 C 156.90625 245.570312 156.878906 244.425781 156.875 243.277344 L 156.875 226.148438 C 146.785156 232.453125 127.984375 258.539062 95.898438 263.703125 C 103.40625 318.59375 149.75 366.773438 210.019531 374.503906 C 242.84375 366.90625 261.433594 344.765625 271.511719 326.515625 C 275.457031 319.230469 278.722656 311.652344 281.304688 303.777344 C 283.882812 295.902344 285.738281 287.863281 286.871094 279.65625 C 285.3125 282.214844 283.597656 284.664062 281.730469 287.003906 C 279.859375 289.339844 277.847656 291.550781 275.691406 293.632812 C 273.539062 295.714844 271.261719 297.652344 268.859375 299.441406 C 266.457031 301.230469 263.949219 302.859375 261.339844 304.328125 C 258.726562 305.796875 256.035156 307.09375 253.257812 308.214844 C 250.480469 309.339844 247.644531 310.28125 244.746094 311.042969 C 241.847656 311.800781 238.914062 312.375 235.941406 312.757812 C 232.972656 313.140625 229.988281 313.335938 226.992188 313.335938 Z M 226.992188 111 C 198.402344 111 175.769531 119.183594 156.898438 130.515625 L 156.898438 77.257812 C 150.398438 86.96875 141.734375 96.167969 132.871094 105.589844 C 115.269531 124.34375 97.136719 143.640625 94.640625 168.683594 L 94.640625 182.09375 C 78.773438 195.460938 64.976562 203.34375 45.980469 203.917969 C 44.96875 203.960938 43.964844 204.050781 42.964844 204.191406 C 41.960938 204.332031 40.96875 204.523438 39.988281 204.761719 C 39.003906 205 38.035156 205.28125 37.082031 205.617188 C 36.125 205.949219 35.1875 206.324219 34.269531 206.75 C 33.351562 207.171875 32.457031 207.640625 31.585938 208.148438 C 30.710938 208.660156 29.867188 209.210938 29.046875 209.804688 C 28.226562 210.398438 27.441406 211.027344 26.683594 211.699219 C 25.925781 212.367188 25.203125 213.074219 24.511719 213.8125 C 23.824219 214.554688 23.175781 215.324219 22.5625 216.128906 C 21.949219 216.933594 21.375 217.765625 20.84375 218.625 C 20.308594 219.484375 19.820312 220.367188 19.375 221.273438 C 18.929688 222.179688 18.527344 223.105469 18.171875 224.054688 C 17.816406 225 17.507812 225.960938 17.246094 226.9375 C 16.984375 227.914062 16.769531 228.898438 16.601562 229.898438 C 16.4375 230.894531 16.320312 231.894531 16.253906 232.90625 C 16.183594 233.914062 16.164062 234.921875 16.195312 235.933594 C 16.226562 236.941406 16.304688 237.949219 16.433594 238.953125 C 16.5625 239.953125 16.738281 240.949219 16.964844 241.933594 C 17.191406 242.917969 17.460938 243.890625 17.78125 244.851562 C 18.101562 245.808594 18.46875 246.75 18.878906 247.671875 C 19.292969 248.597656 19.746094 249.496094 20.246094 250.375 C 20.746094 251.253906 21.289062 252.105469 21.871094 252.933594 C 22.453125 253.757812 23.074219 254.554688 23.734375 255.320312 C 24.398438 256.085938 25.09375 256.816406 25.824219 257.515625 C 26.554688 258.210938 27.320312 258.871094 28.117188 259.496094 C 28.914062 260.117188 29.738281 260.703125 30.589844 261.246094 C 31.441406 261.789062 32.320312 262.289062 33.222656 262.746094 C 34.125 263.203125 35.046875 263.613281 35.988281 263.984375 C 36.929688 264.351562 37.886719 264.671875 38.859375 264.945312 C 39.832031 265.21875 40.816406 265.445312 41.8125 265.625 C 42.808594 265.804688 43.808594 265.933594 44.816406 266.011719 C 45.824219 266.09375 46.835938 266.125 47.84375 266.109375 C 60.800781 265.765625 73.394531 263.441406 85.621094 259.144531 C 85.621094 259.144531 85.910156 259.03125 86.425781 258.855469 C 86.585938 258.804688 86.746094 258.75 86.902344 258.683594 C 87.316406 258.539062 87.730469 258.386719 88.132812 258.214844 C 88.535156 258.042969 88.792969 257.984375 89.109375 257.851562 C 89.636719 257.65625 90.15625 257.449219 90.683594 257.195312 L 91.488281 256.878906 C 91.859375 256.734375 92.21875 256.585938 92.589844 256.429688 C 93.464844 256.058594 94.335938 255.683594 95.1875 255.304688 C 119.878906 244.554688 156.488281 209.597656 165.558594 201.742188 L 165.972656 201.386719 C 185.9375 183.648438 202.15625 173.160156 226.972656 173.160156 C 229.046875 173.160156 231.121094 173.257812 233.1875 173.441406 C 235.257812 173.628906 237.3125 173.90625 239.355469 174.273438 C 241.398438 174.644531 243.421875 175.101562 245.425781 175.648438 C 247.429688 176.199219 249.402344 176.832031 251.347656 177.558594 C 253.296875 178.28125 255.207031 179.089844 257.082031 179.980469 C 258.953125 180.875 260.785156 181.847656 262.574219 182.902344 C 264.363281 183.957031 266.101562 185.089844 267.789062 186.300781 C 269.476562 187.507812 271.105469 188.789062 272.679688 190.144531 C 274.253906 191.5 275.765625 192.917969 277.210938 194.40625 C 278.660156 195.894531 280.039062 197.445312 281.347656 199.054688 C 282.660156 200.664062 283.894531 202.332031 285.058594 204.050781 C 286.21875 205.769531 287.304688 207.539062 288.308594 209.355469 C 289.3125 211.171875 290.238281 213.027344 291.078125 214.925781 C 291.917969 216.824219 292.671875 218.753906 293.339844 220.71875 C 294.011719 222.683594 294.589844 224.675781 295.082031 226.691406 C 295.574219 228.707031 295.976562 230.742188 296.289062 232.796875 C 296.289062 232.835938 296.289062 232.875 296.289062 232.90625 C 302.425781 259.921875 299.011719 299.257812 281.128906 331.742188 C 273 346.480469 259.855469 363.484375 239.246094 374.9375 C 306.480469 368.730469 359.296875 312.027344 359.296875 243.238281 C 359.316406 170.339844 299.960938 111 226.992188 111 Z M 226.992188 111 " fill-opacity="1" fill-rule="nonzero"/></g></svg>